$MeshFormat
2.2 0 8
$EndMeshFormat
$Nodes
69
1 0.1 0 -0.1
2 0 3 0.1
3 4 0 0
4 4 3 0
5 -4 0 0
6 -4 3 0
7 0.08461384792183163 0.7436125374163425 0.02876760323221413
8 0.05034746057026076 1.49305073887696 0.1119763920472098
9 0.01575539298430015 2.246528202542649 0.1390834957754045
10 0.8781140923284353 0 -0.038993455115922
11 1.658229407977498 0 -0.01198971821148291
12 2.438776422625371 0 -0.002334620195906087
13 3.219386250161891 0 -0.0001451536016936424
14 4 0.7499999999999993 0
15 4 1.5 0
16 4 2.25 0
17 0.7983185354873146 3 0.04104615886257261
18 1.598368369886738 3 0.01299527916666546
19 2.398863376595672 3 0.00256728214493598
20 3.199429370939662 3 0.0001604569919068571
21 -0.7184934300924055 0 -0.04296905134802665
22 -1.538489340570312 0 -0.01401672432369162
23 -2.358938177216618 0 -0.002813706177495616
24 -3.179466370169068 0 -0.0001769175751534311
25 -4 0.7499999999999993 0
26 -4 1.5 0
27 -4 2.25 0
28 -0.7983185354873146 3 0.04104615886257261
29 -1.598368369886738 3 0.01299527916666546
30 -2.398863376595672 3 0.00256728214493598
31 -3.199429370939662 3 0.0001604569919068571
32 2.164549534580622 0.6392877430830048 0.06011790428658504
33 2.800757127988717 2.375781646914741 0.156388861879543
34 1.206280767775701 2.400066882982635 0.1856189726119957
35 0.6727326539813654 1.096043936251366 0.0781770836161319
36 3.391488721987727 1.091294683084738 0.0378615436397163
37 2.00382260116365 2.373721485216957 0.229082233541052
38 1.589377830442064 1.791987269062467 0.239276176769722
39 2.433102223007909 1.809845087651116 0.2245034334149516
40 1.33908273163918 0.6842523627297941 0.05710179070712267
41 3.310951122793067 1.848599972266422 0.0801196882569714
42 2.908673981701628 0.5898326881048459 0.0330538061005488
43 0.7092171662043927 1.860160809099653 0.1431089191259212
44 0.641210857891373 0.5380763962571213 0.009991926102210846
45 3.503196995974447 0.4909091101569983 0.007152545745431527
46 2.755237154591869 1.230191027689571 0.1239595396107541
47 3.448713256011501 2.461935502049935 0.04609782847705342
48 0.5507774747012217 2.470669684352028 0.1198458681779904
49 1.924948110137747 1.228394381966792 0.1730172712403289
50 1.270396200293565 1.244914275461769 0.1462207999478984
51 -1.988760448183768 2.503959665673607 0.2029034791380717
52 -2.797764926426932 0.7424477912636513 0.05519285478622771
53 -1.104471908050145 0.7241814320007594 0.05579115726280193
54 -0.5242638197591873 1.840023718302946 0.1277291344175346
55 -3.428440449142335 1.866799936310527 0.05928817253470828
56 -1.952148495542045 0.7058059810939949 0.07294637072532367
57 -1.558329403527742 1.385558959742973 0.1900527079959401
58 -2.36040099888496 1.386593433543812 0.1842890579642554
59 -1.247473990787031 2.195052350613878 0.2102835345956855
60 -2.712635306235653 2.20784555737843 0.1854123788162623
61 -3.436558407692385 1.141916200961211 0.03551298432715533
62 -0.4851306618039498 1.112285577250858 0.07369606938713341
63 -0.5125977158891635 2.450580709731849 0.1196807809669645
64 -3.463431346690183 2.459758624536395 0.04413911303126938
65 -3.463618050873028 0.5328482785535196 0.009442335031481577
66 -0.4320562980865459 0.5178723717165189 0.004108452410277652
67 -2.946012454845962 1.466338482491265 0.1246849919064271
68 -0.9878923143912184 1.442698891374962 0.1486178885930851
69 -1.96887874389618 1.88686766782127 0.2564465260787668
$EndNodes
$Elements
146
1 15 2 0 1 1
2 15 2 0 2 2
3 15 2 0 3 3
4 15 2 0 4 4
5 15 2 0 5 5
6 15 2 0 6 6
7 1 2 0 1 1 7
8 1 2 0 1 7 8
9 1 2 0 1 8 9
10 1 2 0 1 9 2
11 1 2 0 2 1 10
12 1 2 0 2 10 11
13 1 2 0 2 11 12
14 1 2 0 2 12 13
15 1 2 0 2 13 3
16 1 2 0 3 3 14
17 1 2 0 3 14 15
18 1 2 0 3 15 16
19 1 2 0 3 16 4
20 1 2 0 4 2 17
21 1 2 0 4 17 18
22 1 2 0 4 18 19
23 1 2 0 4 19 20
24 1 2 0 4 20 4
25 1 2 0 5 1 21
26 1 2 0 5 21 22
27 1 2 0 5 22 23
28 1 2 0 5 23 24
29 1 2 0 5 24 5
30 1 2 0 6 5 25
31 1 2 0 6 25 26
32 1 2 0 6 26 27
33 1 2 0 6 27 6
34 1 2 0 7 2 28
35 1 2 0 7 28 29
36 1 2 0 7 29 30
37 1 2 0 7 30 31
38 1 2 0 7 31 6
39 2 2 0 1 43 50 38
40 2 2 0 1 39 46 41
41 2 2 0 1 34 43 38
42 2 2 0 1 39 41 33
43 2 2 0 1 35 50 43
44 2 2 0 1 49 50 40
45 2 2 0 1 32 49 40
46 2 2 0 1 42 46 32
47 2 2 0 1 46 49 32
48 2 2 0 1 34 37 18
49 2 2 0 1 34 38 37
50 2 2 0 1 19 37 33
51 2 2 0 1 19 33 20
52 2 2 0 1 17 34 18
53 2 2 0 1 18 37 19
54 2 2 0 1 41 46 36
55 2 2 0 1 12 32 11
56 2 2 0 1 7 35 8
57 2 2 0 1 15 36 14
58 2 2 0 1 11 40 10
59 2 2 0 1 37 39 33
60 2 2 0 1 38 39 37
61 2 2 0 1 13 42 12
62 2 2 0 1 15 41 36
63 2 2 0 1 32 40 11
64 2 2 0 1 16 41 15
65 2 2 0 1 35 43 8
66 2 2 0 1 12 42 32
67 2 2 0 1 10 44 1
68 2 2 0 1 8 43 9
69 2 2 0 1 1 44 7
70 2 2 0 1 3 45 13
71 2 2 0 1 20 47 4
72 2 2 0 1 14 45 3
73 2 2 0 1 4 47 16
74 2 2 0 1 2 48 17
75 2 2 0 1 9 48 2
76 2 2 0 1 13 45 42
77 2 2 0 1 33 47 20
78 2 2 0 1 17 48 34
79 2 2 0 1 40 44 10
80 2 2 0 1 35 44 40
81 2 2 0 1 42 45 36
82 2 2 0 1 7 44 35
83 2 2 0 1 36 45 14
84 2 2 0 1 41 47 33
85 2 2 0 1 38 49 39
86 2 2 0 1 16 47 41
87 2 2 0 1 36 46 42
88 2 2 0 1 39 49 46
89 2 2 0 1 34 48 43
90 2 2 0 1 40 50 35
91 2 2 0 1 38 50 49
92 2 2 0 1 43 48 9
93 2 2 0 2 60 58 69
94 2 2 0 2 58 60 67
95 2 2 0 2 59 57 68
96 2 2 0 2 57 59 69
97 2 2 0 2 51 60 69
98 2 2 0 2 54 59 68
99 2 2 0 2 22 53 56
100 2 2 0 2 56 53 57
101 2 2 0 2 56 57 58
102 2 2 0 2 52 23 56
103 2 2 0 2 24 23 52
104 2 2 0 2 22 21 53
105 2 2 0 2 52 56 58
106 2 2 0 2 23 22 56
107 2 2 0 2 59 51 69
108 2 2 0 2 29 30 51
109 2 2 0 2 28 29 59
110 2 2 0 2 60 55 67
111 2 2 0 2 8 9 54
112 2 2 0 2 27 26 55
113 2 2 0 2 30 31 60
114 2 2 0 2 29 51 59
115 2 2 0 2 55 26 61
116 2 2 0 2 26 25 61
117 2 2 0 2 51 30 60
118 2 2 0 2 8 54 62
119 2 2 0 2 2 28 63
120 2 2 0 2 7 8 62
121 2 2 0 2 9 2 63
122 2 2 0 2 31 6 64
123 2 2 0 2 5 24 65
124 2 2 0 2 6 27 64
125 2 2 0 2 21 1 66
126 2 2 0 2 25 5 65
127 2 2 0 2 52 58 67
128 2 2 0 2 1 7 66
129 2 2 0 2 61 52 67
130 2 2 0 2 60 31 64
131 2 2 0 2 57 53 68
132 2 2 0 2 59 54 63
133 2 2 0 2 24 52 65
134 2 2 0 2 28 59 63
135 2 2 0 2 53 21 66
136 2 2 0 2 55 60 64
137 2 2 0 2 58 57 69
138 2 2 0 2 54 9 63
139 2 2 0 2 52 61 65
140 2 2 0 2 27 55 64
141 2 2 0 2 53 62 68
142 2 2 0 2 55 61 67
143 2 2 0 2 61 25 65
144 2 2 0 2 62 54 68
145 2 2 0 2 62 53 66
146 2 2 0 2 7 62 66
$EndElements
