# vtk DataFile Version 2.0
periodic-cube, Created by Gmsh 4.10.5 
ASCII
DATASET UNSTRUCTURED_GRID
POINTS 45 double
0 0 0
0.5 0 0
0.5 0.5 0
0 0.5 0
0.2500000000010296 0 0
0.5 0.2500000000010296 0
0.2500000000010296 0.5 0
0 0.2500000000010296 0
0.2500000000010296 0.2500000000010296 0
0 0 1
0.5 0 1
0.2500000000010296 0 1
0 0 0.25
0 0 0.5
0 0 0.75
0.5 0 0.25
0.5 0 0.5
0.5 0 0.75
0.2500000000010296 0 0.25
0.2500000000010296 0 0.5
0.2500000000010296 0 0.75
0.5 0.5 1
0.5 0.2500000000010296 1
0.5 0.5 0.25
0.5 0.5 0.5
0.5 0.5 0.75
0.5 0.2500000000010296 0.25
0.5 0.2500000000010296 0.5
0.5 0.2500000000010296 0.75
0 0.5 1
0.2500000000010296 0.5 1
0 0.5 0.25
0 0.5 0.5
0 0.5 0.75
0.2500000000010296 0.5 0.25
0.2500000000010296 0.5 0.5
0.2500000000010296 0.5 0.75
0 0.2500000000010296 1
0 0.2500000000010296 0.25
0 0.2500000000010296 0.5
0 0.2500000000010296 0.75
0.2500000000010296 0.2500000000010296 1
0.2500000000010296 0.2500000000010296 0.25
0.2500000000010296 0.2500000000010296 0.5
0.2500000000010296 0.2500000000010296 0.75

CELLS 56 344
4 0 4 8 7
4 7 8 6 3
4 4 1 5 8
4 8 5 2 6
4 0 4 18 12
4 12 18 19 13
4 13 19 20 14
4 14 20 11 9
4 4 1 15 18
4 18 15 16 19
4 19 16 17 20
4 20 17 10 11
4 1 5 26 15
4 15 26 27 16
4 16 27 28 17
4 17 28 22 10
4 5 2 23 26
4 26 23 24 27
4 27 24 25 28
4 28 25 21 22
4 2 6 34 23
4 23 34 35 24
4 24 35 36 25
4 25 36 30 21
4 6 3 31 34
4 34 31 32 35
4 35 32 33 36
4 36 33 29 30
4 3 7 38 31
4 31 38 39 32
4 32 39 40 33
4 33 40 37 29
4 7 0 12 38
4 38 12 13 39
4 39 13 14 40
4 40 14 9 37
4 9 11 41 37
4 37 41 30 29
4 11 10 22 41
4 41 22 21 30
8 0 4 8 7 12 18 42 38
8 12 18 42 38 13 19 43 39
8 13 19 43 39 14 20 44 40
8 14 20 44 40 9 11 41 37
8 7 8 6 3 38 42 34 31
8 38 42 34 31 39 43 35 32
8 39 43 35 32 40 44 36 33
8 40 44 36 33 37 41 30 29
8 4 1 5 8 18 15 26 42
8 18 15 26 42 19 16 27 43
8 19 16 27 43 20 17 28 44
8 20 17 28 44 11 10 22 41
8 8 5 2 6 42 26 23 34
8 42 26 23 34 43 27 24 35
8 43 27 24 35 44 28 25 36
8 44 28 25 36 41 22 21 30

CELL_TYPES 56
9
9
9
9
9
9
9
9
9
9
9
9
9
9
9
9
9
9
9
9
9
9
9
9
9
9
9
9
9
9
9
9
9
9
9
9
9
9
9
9
12
12
12
12
12
12
12
12
12
12
12
12
12
12
12
12

CELL_DATA 56
SCALARS CellEntityIds int 1
LOOKUP_TABLE default
1
1
1
1
1
1
1
1
1
1
1
1
1
1
1
1
1
1
1
1
1
1
1
1
1
1
1
1
1
1
1
1
1
1
1
1
1
1
1
1
1
1
1
1
1
1
1
1
1
1
1
1
1
1
1
1
