$MeshFormat
2.2 0 8
$EndMeshFormat
$Nodes
98
1 0 0 0
2 1 0 0
3 1 1 0
4 0 1 0
5 0.1249999999999998 0 0
6 0.2499999999999998 0 0
7 0.3749999999999994 0 0
8 0.4999999999999988 0 0
9 0.6249999999999988 0 0
10 0.7499999999999991 0 0
11 0.8749999999999994 0 0
12 1 0.1249999999999998 0
13 1 0.2499999999999998 0
14 1 0.3749999999999994 0
15 1 0.4999999999999988 0
16 1 0.6249999999999988 0
17 1 0.7499999999999991 0
18 1 0.8749999999999994 0
19 0.8749999999999994 1 0
20 0.7499999999999991 1 0
21 0.6249999999999988 1 0
22 0.4999999999999989 1 0
23 0.3749999999999993 1 0
24 0.2499999999999998 1 0
25 0.1249999999999999 1 0
26 0 0.8750000000000001 0
27 0 0.7500000000000002 0
28 0 0.6250000000000007 0
29 0 0.5000000000000011 0
30 0 0.3750000000000012 0
31 0 0.2500000000000009 0
32 0 0.1250000000000006 0
33 0.5624999999999989 0.1082531754730547 0
34 0.8787408590474761 0.5688788296333868 0
35 0.4374999999999991 0.8917468245269455 0
36 0.1107249391757801 0.4359051368937708 0
37 0.309891853563647 0.1070150426096388 0
38 0.8917468245269455 0.3124999999999996 0
39 0.6871891340151963 0.8955068139135622 0
40 0.1182626851017917 0.6692259739230109 0
41 0.8792304632363116 0.8130906423764597 0
42 0.1874999999999998 0.8917468245269454 0
43 0.1094851921887063 0.2033420655976693 0
44 0.8119703288398898 0.1058465056319792 0
45 0.687411721473314 0.1078520638328755 0
46 0.6222382678779044 0.2148535068271494 0
47 0.4995397113129832 0.2162308769262824 0
48 0.5592159774975001 0.3228521478837691 0
49 0.4350399505186865 0.3232496269229517 0
50 0.4995115585047765 0.4327221170255846 0
51 0.6130571419252585 0.4327008212914639 0
52 0.55698961825214 0.5431506844806554 0
53 0.4365001961261518 0.5415315810733968 0
54 0.4989149690630471 0.6498774713089112 0
55 0.6204622660663316 0.6518781417959358 0
56 0.3748733700916652 0.6495569611339231 0
57 0.3123122610363024 0.5413164793658918 0
58 0.5624999999999972 0.7577722283113811 0
59 0.2499999999999988 0.6495190528383257 0
60 0.313317681579977 0.7523710733550597 0
61 0.6858813604038466 0.7503445567222475 0
62 0.7558138451570434 0.6422638761822286 0
63 0.1875710532781786 0.544997516882413 0
64 0.2499999999999997 0.4330127018922167 0
65 0.1778732193721209 0.3232140480521859 0
66 0.3014840143016391 0.3178829819971142 0
67 0.2375681941678716 0.2131232466900191 0
68 0.7646672502010368 0.229066006106814 0
69 0.891746824526945 0.6874999999999991 0
70 0.7774226411965254 0.5265527835888375 0
71 0.8628769461960453 0.4382017528180521 0
72 0.7819074654780986 0.3451910717748128 0
73 0.5624999999999991 0.8917468245269451 0
74 0.4369885941461045 0.1080009076591808 0
75 0.3124999999999994 0.8917468245269453 0
76 0.3714895616679679 0.2148949910804581 0
77 0.3724746634145927 0.4316192480461927 0
78 0.4374999999999977 0.7577722283113808 0
79 0.8081462788186118 0.9070743513265296 0
80 0.8959004857786097 0.1879321779033213 0
81 0.1034157830572138 0.8066379931605242 0
82 0.1911333561284864 0.1028269135594172 0
83 0.792327383986084 0.74371081557924 0
84 0.2010889394410988 0.7499266504670592 0
85 0.6739266620600561 0.3223988573944038 0
86 0.08453570123751109 0.5625000000000009 0
87 0.6718404232224279 0.5422756641907901 0
88 0.07733755452579322 0.3125000000000011 0
89 0.09150635094610993 0.09150635094611009 0
90 0.90849364905389 0.09150635094610993 0
91 0.90849364905389 0.90849364905389 0
92 0.09150635094610959 0.9084936490538904 0
93 0.7301718800130685 0.43455349184306 0
94 0.3749999999999993 0.8247595264191638 0
95 0.4999999999999986 0.8247595264191634 0
96 0.6249999999999991 0.8247595264191643 0
97 0.2601608324359381 0.8246932292153029 0
98 0.7489644266062739 0.8253550026152652 0
$EndNodes
$Elements
198
1 15 2 0 1 1
2 15 2 0 2 2
3 15 2 0 3 3
4 15 2 0 4 4
5 1 2 0 1 1 5
6 1 2 0 1 5 6
7 1 2 0 1 6 7
8 1 2 0 1 7 8
9 1 2 0 1 8 9
10 1 2 0 1 9 10
11 1 2 0 1 10 11
12 1 2 0 1 11 2
13 1 2 0 2 2 12
14 1 2 0 2 12 13
15 1 2 0 2 13 14
16 1 2 0 2 14 15
17 1 2 0 2 15 16
18 1 2 0 2 16 17
19 1 2 0 2 17 18
20 1 2 0 2 18 3
21 1 2 0 3 3 19
22 1 2 0 3 19 20
23 1 2 0 3 20 21
24 1 2 0 3 21 22
25 1 2 0 3 22 23
26 1 2 0 3 23 24
27 1 2 0 3 24 25
28 1 2 0 3 25 4
29 1 2 0 4 4 26
30 1 2 0 4 26 27
31 1 2 0 4 27 28
32 1 2 0 4 28 29
33 1 2 0 4 29 30
34 1 2 0 4 30 31
35 1 2 0 4 31 32
36 1 2 0 4 32 1
37 2 2 0 1 68 80 38
38 2 2 0 1 38 72 68
39 2 2 0 1 34 69 62
40 2 2 0 1 40 63 59
41 2 2 0 1 62 70 34
42 2 2 0 1 40 86 63
43 2 2 0 1 15 71 14
44 2 2 0 1 43 67 65
45 2 2 0 1 37 76 67
46 2 2 0 1 65 88 43
47 2 2 0 1 34 71 15
48 2 2 0 1 14 71 38
49 2 2 0 1 36 65 64
50 2 2 0 1 36 64 63
51 2 2 0 1 49 77 66
52 2 2 0 1 67 76 66
53 2 2 0 1 44 80 68
54 2 2 0 1 70 71 34
55 2 2 0 1 66 77 64
56 2 2 0 1 66 76 49
57 2 2 0 1 70 93 71
58 2 2 0 1 71 93 72
59 2 2 0 1 69 83 62
60 2 2 0 1 59 84 40
61 2 2 0 1 65 66 64
62 2 2 0 1 81 84 42
63 2 2 0 1 84 97 42
64 2 2 0 1 72 85 68
65 2 2 0 1 71 72 38
66 2 2 0 1 65 67 66
67 2 2 0 1 67 82 37
68 2 2 0 1 16 69 34
69 2 2 0 1 45 46 33
70 2 2 0 1 45 68 46
71 2 2 0 1 9 45 33
72 2 2 0 1 22 73 21
73 2 2 0 1 10 45 9
74 2 2 0 1 17 69 16
75 2 2 0 1 44 45 10
76 2 2 0 1 35 73 22
77 2 2 0 1 7 74 37
78 2 2 0 1 9 33 8
79 2 2 0 1 41 69 17
80 2 2 0 1 44 68 45
81 2 2 0 1 33 74 8
82 2 2 0 1 16 34 15
83 2 2 0 1 14 38 13
84 2 2 0 1 8 74 7
85 2 2 0 1 42 75 24
86 2 2 0 1 47 76 74
87 2 2 0 1 24 75 23
88 2 2 0 1 23 75 35
89 2 2 0 1 30 36 29
90 2 2 0 1 49 76 47
91 2 2 0 1 56 78 60
92 2 2 0 1 21 73 39
93 2 2 0 1 32 43 31
94 2 2 0 1 46 47 33
95 2 2 0 1 74 76 37
96 2 2 0 1 46 48 47
97 2 2 0 1 56 59 57
98 2 2 0 1 7 37 6
99 2 2 0 1 21 39 20
100 2 2 0 1 55 62 61
101 2 2 0 1 25 42 24
102 2 2 0 1 47 74 33
103 2 2 0 1 54 78 56
104 2 2 0 1 58 78 54
105 2 2 0 1 11 44 10
106 2 2 0 1 18 41 17
107 2 2 0 1 48 50 49
108 2 2 0 1 48 51 50
109 2 2 0 1 51 52 50
110 2 2 0 1 63 64 57
111 2 2 0 1 23 35 22
112 2 2 0 1 48 49 47
113 2 2 0 1 64 77 57
114 2 2 0 1 28 40 27
115 2 2 0 1 50 77 49
116 2 2 0 1 56 57 53
117 2 2 0 1 55 58 54
118 2 2 0 1 59 63 57
119 2 2 0 1 52 53 50
120 2 2 0 1 56 60 59
121 2 2 0 1 53 77 50
122 2 2 0 1 52 54 53
123 2 2 0 1 54 56 53
124 2 2 0 1 57 77 53
125 2 2 0 1 55 61 58
126 2 2 0 1 52 55 54
127 2 2 0 1 62 87 70
128 2 2 0 1 79 98 41
129 2 2 0 1 41 98 83
130 2 2 0 1 20 79 19
131 2 2 0 1 27 81 26
132 2 2 0 1 13 80 12
133 2 2 0 1 63 86 36
134 2 2 0 1 6 82 5
135 2 2 0 1 37 82 6
136 2 2 0 1 36 88 65
137 2 2 0 1 39 79 20
138 2 2 0 1 38 80 13
139 2 2 0 1 40 81 27
140 2 2 0 1 51 93 87
141 2 2 0 1 43 82 67
142 2 2 0 1 68 85 46
143 2 2 0 1 48 85 51
144 2 2 0 1 36 86 29
145 2 2 0 1 28 86 40
146 2 2 0 1 51 87 52
147 2 2 0 1 55 87 62
148 2 2 0 1 43 88 31
149 2 2 0 1 30 88 36
150 2 2 0 1 1 89 32
151 2 2 0 1 5 89 1
152 2 2 0 1 2 90 11
153 2 2 0 1 12 90 2
154 2 2 0 1 19 91 3
155 2 2 0 1 4 92 25
156 2 2 0 1 3 91 18
157 2 2 0 1 26 92 4
158 2 2 0 1 85 93 51
159 2 2 0 1 41 83 69
160 2 2 0 1 62 83 61
161 2 2 0 1 60 84 59
162 2 2 0 1 87 93 70
163 2 2 0 1 46 85 48
164 2 2 0 1 40 84 81
165 2 2 0 1 29 86 28
166 2 2 0 1 52 87 55
167 2 2 0 1 72 93 85
168 2 2 0 1 79 91 19
169 2 2 0 1 80 90 12
170 2 2 0 1 81 92 26
171 2 2 0 1 31 88 30
172 2 2 0 1 11 90 44
173 2 2 0 1 32 89 43
174 2 2 0 1 18 91 41
175 2 2 0 1 25 92 42
176 2 2 0 1 82 89 5
177 2 2 0 1 94 97 60
178 2 2 0 1 58 96 95
179 2 2 0 1 95 96 73
180 2 2 0 1 35 95 73
181 2 2 0 1 75 94 35
182 2 2 0 1 78 94 60
183 2 2 0 1 61 96 58
184 2 2 0 1 73 96 39
185 2 2 0 1 58 95 78
186 2 2 0 1 94 95 35
187 2 2 0 1 78 95 94
188 2 2 0 1 75 97 94
189 2 2 0 1 42 97 75
190 2 2 0 1 41 91 79
191 2 2 0 1 42 92 81
192 2 2 0 1 44 90 80
193 2 2 0 1 61 98 96
194 2 2 0 1 96 98 39
195 2 2 0 1 43 89 82
196 2 2 0 1 39 98 79
197 2 2 0 1 60 97 84
198 2 2 0 1 83 98 61
$EndElements
$Periodic
3
0 3 2
Affine 1 0 0 0 0 1 0 1 0 0 1 0 0 0 0 1
1
3 2
0 4 1
Affine 1 0 0 0 0 1 0 1 0 0 1 0 0 0 0 1
1
4 1
1 3 1
Affine 1 0 0 0 0 1 0 1 0 0 1 0 0 0 0 1
9
3 2
4 1
19 11
20 10
21 9
22 8
23 7
24 6
25 5
$EndPeriodic
