$MeshFormat
2.2 0 8
$EndMeshFormat
$Nodes
45
1 0 0 0
2 0.5 0 0
3 0.5 0.5 0
4 0 0.5 0
5 0 0 1
6 0.5 0 1
7 0.5 0.5 1
8 0 0.5 1
9 0.2500000000010296 0 0
10 0.5 0.2500000000010296 0
11 0.2500000000010296 0.5 0
12 0 0.2500000000010296 0
13 0.2500000000010296 0 1
14 0.5 0.2500000000010296 1
15 0.2500000000010296 0.5 1
16 0 0.2500000000010296 1
17 0 0 0.25
18 0 0 0.5
19 0 0 0.75
20 0.5 0 0.25
21 0.5 0 0.5
22 0.5 0 0.75
23 0.5 0.5 0.25
24 0.5 0.5 0.5
25 0.5 0.5 0.75
26 0 0.5 0.25
27 0 0.5 0.5
28 0 0.5 0.75
29 0.2500000000010296 0.2500000000010296 0
30 0.2500000000010296 0 0.25
31 0.2500000000010296 0 0.5
32 0.2500000000010296 0 0.75
33 0.5 0.2500000000010296 0.25
34 0.5 0.2500000000010296 0.5
35 0.5 0.2500000000010296 0.75
36 0.2500000000010296 0.5 0.25
37 0.2500000000010296 0.5 0.5
38 0.2500000000010296 0.5 0.75
39 0 0.2500000000010296 0.25
40 0 0.2500000000010296 0.5
41 0 0.2500000000010296 0.75
42 0.2500000000010296 0.2500000000010296 1
43 0.2500000000010296 0.2500000000010296 0.25
44 0.2500000000010296 0.2500000000010296 0.5
45 0.2500000000010296 0.2500000000010296 0.75
$EndNodes
$Elements
56
1 3 2 1 1 1 9 29 12
2 3 2 1 1 12 29 11 4
3 3 2 1 1 9 2 10 29
4 3 2 1 1 29 10 3 11
5 3 2 1 13 1 9 30 17
6 3 2 1 13 17 30 31 18
7 3 2 1 13 18 31 32 19
8 3 2 1 13 19 32 13 5
9 3 2 1 13 9 2 20 30
10 3 2 1 13 30 20 21 31
11 3 2 1 13 31 21 22 32
12 3 2 1 13 32 22 6 13
13 3 2 1 17 2 10 33 20
14 3 2 1 17 20 33 34 21
15 3 2 1 17 21 34 35 22
16 3 2 1 17 22 35 14 6
17 3 2 1 17 10 3 23 33
18 3 2 1 17 33 23 24 34
19 3 2 1 17 34 24 25 35
20 3 2 1 17 35 25 7 14
21 3 2 1 21 3 11 36 23
22 3 2 1 21 23 36 37 24
23 3 2 1 21 24 37 38 25
24 3 2 1 21 25 38 15 7
25 3 2 1 21 11 4 26 36
26 3 2 1 21 36 26 27 37
27 3 2 1 21 37 27 28 38
28 3 2 1 21 38 28 8 15
29 3 2 1 25 4 12 39 26
30 3 2 1 25 26 39 40 27
31 3 2 1 25 27 40 41 28
32 3 2 1 25 28 41 16 8
33 3 2 1 25 12 1 17 39
34 3 2 1 25 39 17 18 40
35 3 2 1 25 40 18 19 41
36 3 2 1 25 41 19 5 16
37 3 2 1 26 5 13 42 16
38 3 2 1 26 16 42 15 8
39 3 2 1 26 13 6 14 42
40 3 2 1 26 42 14 7 15
41 5 2 1 1 1 9 29 12 17 30 43 39
42 5 2 1 1 17 30 43 39 18 31 44 40
43 5 2 1 1 18 31 44 40 19 32 45 41
44 5 2 1 1 19 32 45 41 5 13 42 16
45 5 2 1 1 12 29 11 4 39 43 36 26
46 5 2 1 1 39 43 36 26 40 44 37 27
47 5 2 1 1 40 44 37 27 41 45 38 28
48 5 2 1 1 41 45 38 28 16 42 15 8
49 5 2 1 1 9 2 10 29 30 20 33 43
50 5 2 1 1 30 20 33 43 31 21 34 44
51 5 2 1 1 31 21 34 44 32 22 35 45
52 5 2 1 1 32 22 35 45 13 6 14 42
53 5 2 1 1 29 10 3 11 43 33 23 36
54 5 2 1 1 43 33 23 36 44 34 24 37
55 5 2 1 1 44 34 24 37 45 35 25 38
56 5 2 1 1 45 35 25 38 42 14 7 15
$EndElements
$Periodic
1
2 26 1
Affine 1 0 0 0 0 1 0 0 0 0 1 1 0 0 0 1
9
5 1
6 2
7 3
8 4
13 9
14 10
15 11
16 12
42 29
$EndPeriodic
