$MeshFormat
4.1 0 8
$EndMeshFormat
$Entities
8 12 6 1
1 0 0 0 0 
2 1 0 0 0 
3 1 1 0 0 
4 0 1 0 0 
5 0 0 1 0 
6 1 0 1 0 
10 1 1 1 0 
14 0 1 1 0 
1 0 0 0 1 0 0 0 2 1 -2 
2 1 0 0 1 1 0 0 2 2 -3 
3 0 1 0 1 1 0 0 2 3 -4 
4 0 0 0 0 1 0 0 2 4 -1 
6 0 0 1 1 0 1 0 2 5 -6 
7 1 0 1 1 1 1 0 2 6 -10 
8 0 1 1 1 1 1 0 2 10 -14 
9 0 0 1 0 1 1 0 2 14 -5 
11 0 0 0 0 0 1 0 2 1 -5 
12 1 0 0 1 0 1 0 2 2 -6 
16 1 1 0 1 1 1 0 2 3 -10 
20 0 1 0 0 1 1 0 2 4 -14 
1 0 0 0 1 1 0 1 1 4 1 2 3 4 
13 0 0 0 1 0 1 1 1 4 1 12 -6 -11 
17 1 0 0 1 1 1 1 1 4 2 16 -7 -12 
21 0 1 0 1 1 1 1 1 4 3 20 -8 -16 
25 0 0 0 0 1 1 1 1 4 4 11 -9 -20 
26 0 0 1 1 1 1 1 1 4 6 7 8 9 
1 0 0 0 1 1 1 1 1 6 -1 26 13 17 21 25 
$EndEntities
$Nodes
27 125 1 125
0 1 0 1
1
0 0 0
0 2 0 1
2
1 0 0
0 3 0 1
3
1 1 0
0 4 0 1
4
0 1 0
0 5 0 1
5
0 0 1
0 6 0 1
6
1 0 1
0 10 0 1
7
1 1 1
0 14 0 1
8
0 1 1
1 1 0 3
9
10
11
0.2500000000010404 0 0
0.5000000000020591 0 0
0.7500000000003465 0 0
1 2 0 3
12
13
14
1 0.2500000000010404 0
1 0.5000000000020591 0
1 0.7500000000003465 0
1 3 0 3
15
16
17
0.7500000000003465 1 0
0.5000000000020591 1 0
0.2500000000010404 1 0
1 4 0 3
18
19
20
0 0.7500000000003465 0
0 0.5000000000020591 0
0 0.2500000000010404 0
1 6 0 3
21
22
23
0.2500000000010404 0 1
0.5000000000020591 0 1
0.7500000000003465 0 1
1 7 0 3
24
25
26
1 0.2500000000010404 1
1 0.5000000000020591 1
1 0.7500000000003465 1
1 8 0 3
27
28
29
0.7500000000003465 1 1
0.5000000000020591 1 1
0.2500000000010404 1 1
1 9 0 3
30
31
32
0 0.7500000000003465 1
0 0.5000000000020591 1
0 0.2500000000010404 1
1 11 0 3
33
34
35
0 0 0.25
0 0 0.5
0 0 0.75
1 12 0 3
36
37
38
1 0 0.25
1 0 0.5
1 0 0.75
1 16 0 3
39
40
41
1 1 0.25
1 1 0.5
1 1 0.75
1 20 0 3
42
43
44
0 1 0.25
0 1 0.5
0 1 0.75
2 1 0 9
45
46
47
48
49
50
51
52
53
0.2500000000010404 0.2500000000010404 0
0.2500000000010404 0.5000000000020591 0
0.2500000000010404 0.7500000000003464 0
0.5000000000020591 0.2500000000010404 0
0.5000000000020591 0.5000000000020591 0
0.5000000000020591 0.7500000000003465 0
0.7500000000003464 0.2500000000010404 0
0.7500000000003467 0.5000000000020591 0
0.7500000000003464 0.7500000000003466 0
2 13 0 9
54
55
56
57
58
59
60
61
62
0.2500000000010404 0 0.25
0.2500000000010404 0 0.5
0.2500000000010404 0 0.75
0.5000000000020591 0 0.25
0.5000000000020591 0 0.5
0.5000000000020591 0 0.75
0.7500000000003465 0 0.25
0.7500000000003465 0 0.5
0.7500000000003465 0 0.75
2 17 0 9
63
64
65
66
67
68
69
70
71
1 0.2500000000010404 0.25
1 0.2500000000010404 0.5
1 0.2500000000010404 0.75
1 0.5000000000020591 0.25
1 0.5000000000020591 0.5
1 0.5000000000020591 0.75
1 0.7500000000003465 0.25
1 0.7500000000003465 0.5
1 0.7500000000003465 0.75
2 21 0 9
72
73
74
75
76
77
78
79
80
0.7500000000003465 1 0.25
0.7500000000003465 1 0.5
0.7500000000003465 1 0.75
0.5000000000020591 1 0.25
0.5000000000020591 1 0.5
0.5000000000020591 1 0.75
0.2500000000010404 1 0.25
0.2500000000010404 1 0.5
0.2500000000010404 1 0.75
2 25 0 9
81
82
83
84
85
86
87
88
89
0 0.7500000000003465 0.25
0 0.7500000000003465 0.5
0 0.7500000000003465 0.75
0 0.5000000000020591 0.25
0 0.5000000000020591 0.5
0 0.5000000000020591 0.75
0 0.2500000000010404 0.25
0 0.2500000000010404 0.5
0 0.2500000000010404 0.75
2 26 0 9
90
91
92
93
94
95
96
97
98
0.2500000000010404 0.2500000000010404 1
0.2500000000010404 0.5000000000020591 1
0.2500000000010404 0.7500000000003464 1
0.5000000000020591 0.2500000000010404 1
0.5000000000020591 0.5000000000020591 1
0.5000000000020591 0.7500000000003465 1
0.7500000000003464 0.2500000000010404 1
0.7500000000003467 0.5000000000020591 1
0.7500000000003464 0.7500000000003466 1
3 1 0 27
99
100
101
102
103
104
105
106
107
108
109
110
111
112
113
114
115
116
117
118
119
120
121
122
123
124
125
0.2500000000010404 0.2500000000010404 0.25
0.2500000000010404 0.2500000000010404 0.5
0.2500000000010404 0.2500000000010404 0.75
0.2500000000010404 0.5000000000020591 0.25
0.2500000000010404 0.5000000000020591 0.5
0.2500000000010404 0.5000000000020591 0.75
0.2500000000010404 0.7500000000003464 0.25
0.2500000000010404 0.7500000000003464 0.5
0.2500000000010404 0.7500000000003464 0.75
0.5000000000020591 0.2500000000010404 0.25
0.5000000000020591 0.2500000000010404 0.5
0.5000000000020591 0.2500000000010404 0.75
0.5000000000020591 0.5000000000020591 0.25
0.5000000000020591 0.5000000000020591 0.5
0.5000000000020591 0.5000000000020591 0.75
0.5000000000020591 0.7500000000003465 0.25
0.5000000000020591 0.7500000000003465 0.5
0.5000000000020591 0.7500000000003465 0.75
0.7500000000003464 0.2500000000010404 0.25
0.7500000000003464 0.2500000000010404 0.5
0.7500000000003464 0.2500000000010404 0.75
0.7500000000003467 0.5000000000020591 0.25
0.7500000000003467 0.5000000000020591 0.5
0.7500000000003467 0.5000000000020591 0.75
0.7500000000003464 0.7500000000003466 0.25
0.7500000000003464 0.7500000000003466 0.5
0.7500000000003464 0.7500000000003466 0.75
$EndNodes
$Elements
7 160 1 160
2 1 3 16
1 1 9 45 20 
2 20 45 46 19 
3 19 46 47 18 
4 18 47 17 4 
5 9 10 48 45 
6 45 48 49 46 
7 46 49 50 47 
8 47 50 16 17 
9 10 11 51 48 
10 48 51 52 49 
11 49 52 53 50 
12 50 53 15 16 
13 11 2 12 51 
14 51 12 13 52 
15 52 13 14 53 
16 53 14 3 15 
2 13 3 16
17 1 9 54 33 
18 33 54 55 34 
19 34 55 56 35 
20 35 56 21 5 
21 9 10 57 54 
22 54 57 58 55 
23 55 58 59 56 
24 56 59 22 21 
25 10 11 60 57 
26 57 60 61 58 
27 58 61 62 59 
28 59 62 23 22 
29 11 2 36 60 
30 60 36 37 61 
31 61 37 38 62 
32 62 38 6 23 
2 17 3 16
33 2 12 63 36 
34 36 63 64 37 
35 37 64 65 38 
36 38 65 24 6 
37 12 13 66 63 
38 63 66 67 64 
39 64 67 68 65 
40 65 68 25 24 
41 13 14 69 66 
42 66 69 70 67 
43 67 70 71 68 
44 68 71 26 25 
45 14 3 39 69 
46 69 39 40 70 
47 70 40 41 71 
48 71 41 7 26 
2 21 3 16
49 3 15 72 39 
50 39 72 73 40 
51 40 73 74 41 
52 41 74 27 7 
53 15 16 75 72 
54 72 75 76 73 
55 73 76 77 74 
56 74 77 28 27 
57 16 17 78 75 
58 75 78 79 76 
59 76 79 80 77 
60 77 80 29 28 
61 17 4 42 78 
62 78 42 43 79 
63 79 43 44 80 
64 80 44 8 29 
2 25 3 16
65 4 18 81 42 
66 42 81 82 43 
67 43 82 83 44 
68 44 83 30 8 
69 18 19 84 81 
70 81 84 85 82 
71 82 85 86 83 
72 83 86 31 30 
73 19 20 87 84 
74 84 87 88 85 
75 85 88 89 86 
76 86 89 32 31 
77 20 1 33 87 
78 87 33 34 88 
79 88 34 35 89 
80 89 35 5 32 
2 26 3 16
81 5 21 90 32 
82 32 90 91 31 
83 31 91 92 30 
84 30 92 29 8 
85 21 22 93 90 
86 90 93 94 91 
87 91 94 95 92 
88 92 95 28 29 
89 22 23 96 93 
90 93 96 97 94 
91 94 97 98 95 
92 95 98 27 28 
93 23 6 24 96 
94 96 24 25 97 
95 97 25 26 98 
96 98 26 7 27 
3 1 5 64
97 1 9 45 20 33 54 99 87 
98 33 54 99 87 34 55 100 88 
99 34 55 100 88 35 56 101 89 
100 35 56 101 89 5 21 90 32 
101 20 45 46 19 87 99 102 84 
102 87 99 102 84 88 100 103 85 
103 88 100 103 85 89 101 104 86 
104 89 101 104 86 32 90 91 31 
105 19 46 47 18 84 102 105 81 
106 84 102 105 81 85 103 106 82 
107 85 103 106 82 86 104 107 83 
108 86 104 107 83 31 91 92 30 
109 18 47 17 4 81 105 78 42 
110 81 105 78 42 82 106 79 43 
111 82 106 79 43 83 107 80 44 
112 83 107 80 44 30 92 29 8 
113 9 10 48 45 54 57 108 99 
114 54 57 108 99 55 58 109 100 
115 55 58 109 100 56 59 110 101 
116 56 59 110 101 21 22 93 90 
117 45 48 49 46 99 108 111 102 
118 99 108 111 102 100 109 112 103 
119 100 109 112 103 101 110 113 104 
120 101 110 113 104 90 93 94 91 
121 46 49 50 47 102 111 114 105 
122 102 111 114 105 103 112 115 106 
123 103 112 115 106 104 113 116 107 
124 104 113 116 107 91 94 95 92 
125 47 50 16 17 105 114 75 78 
126 105 114 75 78 106 115 76 79 
127 106 115 76 79 107 116 77 80 
128 107 116 77 80 92 95 28 29 
129 10 11 51 48 57 60 117 108 
130 57 60 117 108 58 61 118 109 
131 58 61 118 109 59 62 119 110 
132 59 62 119 110 22 23 96 93 
133 48 51 52 49 108 117 120 111 
134 108 117 120 111 109 118 121 112 
135 109 118 121 112 110 119 122 113 
136 110 119 122 113 93 96 97 94 
137 49 52 53 50 111 120 123 114 
138 111 120 123 114 112 121 124 115 
139 112 121 124 115 113 122 125 116 
140 113 122 125 116 94 97 98 95 
141 50 53 15 16 114 123 72 75 
142 114 123 72 75 115 124 73 76 
143 115 124 73 76 116 125 74 77 
144 116 125 74 77 95 98 27 28 
145 11 2 12 51 60 36 63 117 
146 60 36 63 117 61 37 64 118 
147 61 37 64 118 62 38 65 119 
148 62 38 65 119 23 6 24 96 
149 51 12 13 52 117 63 66 120 
150 117 63 66 120 118 64 67 121 
151 118 64 67 121 119 65 68 122 
152 119 65 68 122 96 24 25 97 
153 52 13 14 53 120 66 69 123 
154 120 66 69 123 121 67 70 124 
155 121 67 70 124 122 68 71 125 
156 122 68 71 125 97 25 26 98 
157 53 14 3 15 123 69 39 72 
158 123 69 39 72 124 70 40 73 
159 124 70 40 73 125 71 41 74 
160 125 71 41 74 98 26 7 27 
$EndElements
$Periodic
20
0 1 4
0
1
1 4
0 2 1
16 1 0 0 1 0 1 0 0 0 0 1 0 0 0 0 1
1
2 1
0 3 4
16 1 0 0 1 0 1 0 0 0 0 1 0 0 0 0 1
1
3 4
0 4 1
16 1 0 0 0 0 1 0 1 0 0 1 0 0 0 0 1
1
4 1
0 5 1
16 1 0 0 0 0 1 0 0 0 0 1 1 0 0 0 1
1
5 1
0 6 5
16 1 0 0 1 0 1 0 0 0 0 1 0 0 0 0 1
1
6 5
0 10 14
16 1 0 0 1 0 1 0 0 0 0 1 0 0 0 0 1
1
7 8
0 14 5
16 1 0 0 0 0 1 0 1 0 0 1 0 0 0 0 1
1
8 5
1 1 3
0
5
1 4
2 3
9 17
10 16
11 15
1 2 4
16 1 0 0 1 0 1 0 0 0 0 1 0 0 0 0 1
5
2 1
3 4
12 20
13 19
14 18
1 6 1
16 1 0 0 0 0 1 0 0 0 0 1 1 0 0 0 1
5
5 1
6 2
21 9
22 10
23 11
1 7 9
16 1 0 0 1 0 1 0 0 0 0 1 0 0 0 0 1
5
6 5
7 8
24 32
25 31
26 30
1 8 6
16 1 0 0 0 0 1 0 1 0 0 1 0 0 0 0 1
5
7 6
8 5
27 23
28 22
29 21
1 9 4
16 1 0 0 0 0 1 0 0 0 0 1 1 0 0 0 1
5
5 1
8 4
30 18
31 19
32 20
1 12 11
16 1 0 0 1 0 1 0 0 0 0 1 0 0 0 0 1
5
2 1
6 5
36 33
37 34
38 35
1 16 20
16 1 0 0 1 0 1 0 0 0 0 1 0 0 0 0 1
5
3 4
7 8
39 42
40 43
41 44
1 20 11
16 1 0 0 0 0 1 0 1 0 0 1 0 0 0 0 1
5
4 1
8 5
42 33
43 34
44 35
2 17 25
16 1 0 0 1 0 1 0 0 0 0 1 0 0 0 0 1
25
2 1
3 4
6 5
7 8
12 20
13 19
14 18
24 32
25 31
26 30
36 33
37 34
38 35
39 42
40 43
41 44
63 87
64 88
65 89
66 84
67 85
68 86
69 81
70 82
71 83
2 21 13
16 1 0 0 0 0 1 0 1 0 0 1 0 0 0 0 1
25
3 2
4 1
7 6
8 5
15 11
16 10
17 9
27 23
28 22
29 21
39 36
40 37
41 38
42 33
43 34
44 35
72 60
73 61
74 62
75 57
76 58
77 59
78 54
79 55
80 56
2 26 1
16 1 0 0 0 0 1 0 0 0 0 1 1 0 0 0 1
25
5 1
6 2
7 3
8 4
21 9
22 10
23 11
24 12
25 13
26 14
27 15
28 16
29 17
30 18
31 19
32 20
90 45
91 46
92 47
93 48
94 49
95 50
96 51
97 52
98 53
$EndPeriodic
